<svg xmlns="http://www.w3.org/2000/svg" viewBox="0 0 122.72 133.8">
<path d="M31.12 54c.08-.19.18-.38.24-.59.23-.77.43-1.55.67-2.32 1.05-3.44 2.66-6.59 4.91-9.41 2.32-2.91 5.15-5.14 8.51-6.7 1.77-.82 3.64-1.33 5.58-1.67 2.37-.41 4.73-.54 7.12-.52.9 0 1.79-.04 2.69-.05.3 0 .44-.12.44-.42v-2.47c0-.34-.17-.49-.49-.5H43.5q-1.03 0-1.03-1.05V.76c0-.75 0-.76.77-.76h66.87c1 0 1.01 0 1.01 1.01v27.08c0 1.21-.04 1.26-1.26 1.26H93.24q-1.14 0-1.15 1.15v1.66c0 .4.18.59.6.59 1.33 0 2.66.05 3.99.06 1.84 0 3.65.24 5.46.53 2.42.39 4.72 1.14 6.86 2.31 3.19 1.73 5.85 4.08 7.96 7.03 1.71 2.4 3.07 4.98 3.95 7.8.46 1.46.87 2.95 1.19 4.44.24 1.13.33 2.3.41 3.46.11 1.42.19 2.84.2 4.26.02 5.39 0 10.78 0 16.17 0 .96-.02 1-.97 1H92.91c-1.02 0-1.13.12-1.28 1.14-.7 4.84-2.38 9.3-5.24 13.29-2.79 3.9-6.43 6.73-10.93 8.39-2.1.77-4.27 1.26-6.51 1.38-2.22.12-4.45.18-6.68.27-.21 0-.42-.02-.63.02-.11.02-.19.16-.28.25.09.1.16.24.27.27.18.05.39.04.58.04 9.52 0 19.04.02 28.56.02h.13c.86 0 .92-.06.92-.92V87.7c0-1.11.02-1.14 1.12-1.14h29.23c.33 0 .5.16.5.5v.67c0 5.7.02 11.41 0 17.11 0 1.97-.2 3.93-.5 5.89-.56 3.65-1.77 7.18-3.56 10.41-1.41 2.56-3.23 4.8-5.43 6.74a22.07 22.07 0 0 1-7.25 4.28c-2.26.8-4.6 1.27-7 1.42-6.4.38-12.81.13-19.22.18-6.81.05-13.62.04-20.43 0-1.96 0-3.93-.05-5.87-.23-3.97-.37-7.69-1.53-11.05-3.74-4-2.64-6.86-6.25-8.9-10.54a30.732 30.732 0 0 1-2.3-6.94c-.43-2.1-.71-4.24-.7-6.41 0-1.88.2-1.64-1.7-1.67-.69-.01-1.38 0-2.07 0-2.46 0-4.89-.27-7.29-.8-3.5-.77-6.62-2.32-9.37-4.57-2.52-2.06-4.53-4.58-6.08-7.46-1.1-2.03-1.99-4.14-2.6-6.36-.52-1.88-.91-3.79-1.06-5.75-.51-6.47-.14-12.95-.25-19.43C0 57.97.03 56.07.03 54.17v-.36c.01-.71.06-.77.76-.77 7.55 0 15.09 0 22.64-.02h6.38c.66 0 1.08.34 1.27 1.01l.04-.03Zm85.3 38.9c-.49-.06-.9-.16-1.32-.16-5.4-.01-10.81-.01-16.21-.01-.84 0-.85 0-.85.88 0 3.4.01 6.8-.02 10.19-.02 1.42-.08 2.84-.24 4.25-.15 1.28-.94 2.15-2.17 2.48-.86.23-1.76.39-2.65.4-4.48.04-8.95.03-13.43.03-6.44 0-12.87 0-19.31-.03-.93 0-1.88-.18-2.78-.43-.98-.27-1.6-.99-1.92-1.97-.36-1.09-.31-2.22-.32-3.34-.01-12.27-.02-24.55-.01-36.82 0-3.08.03-6.17.09-9.25.03-1.71.88-2.84 2.53-3.29.87-.24 1.8-.29 2.7-.37.8-.07.81-.04.81-.87V44.04c0-1.54-.02-3.08 0-4.63 0-.45-.16-.6-.6-.59-1.26.03-2.51.02-3.77.02-1.9 0-3.79.19-5.65.61-2.78.62-5.27 1.84-7.38 3.71-3.48 3.09-5.51 7.06-6.58 11.55-.56 2.36-.72 4.76-.72 7.17v24.79c0 6.74 0 13.47.09 20.21.04 3.18.76 6.26 2.07 9.17 1.04 2.31 2.37 4.43 4.14 6.26 2.62 2.7 5.84 4.27 9.51 4.84 1.84.29 3.72.39 5.59.4 9.22.04 18.44.03 27.66 0 4.18 0 8.35-.03 12.53-.12 2.06-.04 4.07-.47 6-1.2 4.21-1.59 7.21-4.55 9.29-8.45 2.09-3.9 2.98-8.13 3.02-12.54.03-3.46 0-6.92 0-10.37 0-.66-.06-1.31-.1-1.97ZM76.75 6.06c-5.12-.01-10.24-.02-15.36-.01-4 0-7.99.03-11.99.06-.61 0-.72.13-.75.74v15.54c0 .69.18.87.88.88.94.03 1.89.05 2.83.05l13.88.03c.19 0 .39 0 .58.02.36.04.57.22.58.61 0 .31.01.63.01.94 0 15.34.01 30.69 0 46.03 0 2.21-.01 4.43-.09 6.64-.08 2.37-1.37 3.62-3.73 3.73-.6.03-1.19.12-1.79.14-.44.02-.59.2-.59.64.01 1.77 0 3.53 0 5.3 0 3.32 0 6.65.01 9.97 0 .63 0 .65.6.66 1.32.01 2.63-.02 3.95 0 1.79.02 3.55-.19 5.3-.54 4.07-.81 7.34-2.92 9.87-6.17 3.29-4.22 4.79-9.11 4.94-14.4.11-3.83.04-7.66.04-11.5.02-13.68.03-27.36.04-41.04 0-.97.07-1.03 1.06-1.04 1.63 0 3.26 0 4.89-.01 3.02 0 6.05 0 9.07-.02 1.05 0 2.1-.02 3.14-.05.69-.02.79-.12.79-.73V7.58c0-.3-.04-.6-.06-.9-.02-.37-.21-.57-.6-.57-.43 0-.87-.05-1.3-.05h-26.2ZM6.32 59.18c-.03.34-.06.57-.06.81-.02 1.65-.05 3.29-.06 4.94 0 3.41-.02 6.83 0 10.24.02 2.99.37 5.94 1.28 8.8.79 2.5 1.81 4.89 3.44 6.96 1.37 1.73 2.9 3.3 4.81 4.46C18.71 97.2 22 97.85 25.42 98c1.6.07 3.2.03 4.8.03.71 0 .74-.03.74-.73.02-2.83.04-5.66.04-8.49 0-2.23-.03-4.46-.03-6.69 0-.45-.15-.65-.62-.66-.69-.02-1.38-.07-2.06-.17-1.75-.23-3.03-.89-3.3-2.89-.13-.99-.21-1.99-.22-2.99-.03-5.15-.02-10.3-.03-15.45v-.4c0-.25-.09-.38-.37-.38-.66 0-1.31-.06-1.97-.06h-9.16c-1.51 0-3.02.04-4.53.06H6.32Zm99.91 14.47v-.07h9.61c.48 0 .63-.17.63-.62 0-.7.05-1.41.05-2.11V62c0-2.54-.23-5.05-.84-7.52-.91-3.67-2.43-7-4.99-9.87-3.24-3.62-7.36-5.28-12.06-5.7-1.89-.17-3.8-.1-5.7-.12-1.09 0-1.09 0-1.1 1.09v14.23c0 .25.03.51.03.76 0 .38.19.51.56.53.79.05 1.59.1 2.36.24 1.73.32 2.74 1.05 3.01 2.79.16 1.01.21 2.05.22 3.08.03 3.7 0 7.4.02 11.09 0 1.04-.2.98.99 1 2.39.03 4.79 0 7.19 0v.05Z"/></svg>