<?xml version="1.0" encoding="utf-8"?>
<!-- Generator: Adobe Illustrator 27.0.0, SVG Export Plug-In . SVG Version: 6.00 Build 0)  -->
<svg version="1.2" baseProfile="tiny" id="Layer_1" xmlns="http://www.w3.org/2000/svg" xmlns:xlink="http://www.w3.org/1999/xlink"
	 x="0px" y="0px" viewBox="0 0 145.9 145.9" overflow="visible" xml:space="preserve">
<path fill="#FFFFFF" d="M99.3,6.1h22.4c1,0,1,0,1,1v27.1c0,1.2,0,1.3-1.3,1.3h-16.7c-1.1,0-1.1,0-1.1,1.2v1.7c0,0.4,0.2,0.6,0.6,0.6
	c1.3,0,2.7,0,4,0.1c1.8,0,3.7,0.2,5.5,0.5c2.4,0.4,4.7,1.1,6.9,2.3c3.2,1.7,5.8,4.1,8,7c1.7,2.4,3.1,5,3.9,7.8
	c0.5,1.5,0.9,3,1.2,4.4c0.2,1.1,0.3,2.3,0.4,3.5c0.1,1.4,0.2,2.8,0.2,4.3c0,5.4,0,10.8,0,16.2c0,1,0,1-1,1h-28.8
	c-1,0-1.1,0.1-1.3,1.1c-0.7,4.8-2.4,9.3-5.2,13.3c-2.8,3.9-6.4,6.7-10.9,8.4c-2.1,0.8-4.3,1.3-6.5,1.4c-2.2,0.1-4.4,0.2-6.7,0.3
	h-0.4c-0.1,0-0.2,0-0.3,0c-0.1,0-0.2,0.2-0.3,0.2c0.1,0.1,0.2,0.2,0.3,0.3c0.1,0,0.2,0,0.4,0h0.2c9.5,0,19,0,28.6,0h0.1
	c0.9,0,0.9-0.1,0.9-0.9V93.8c0-1.1,0-1.1,1.1-1.1h29.2c0.3,0,0.5,0.2,0.5,0.5v0.7c0,5.7,0,11.4,0,17.1c0,2-0.2,3.9-0.5,5.9
	c-0.6,3.7-1.8,7.2-3.6,10.4c-1.4,2.6-3.2,4.8-5.4,6.7c-2.1,1.9-4.6,3.3-7.2,4.3c-2.3,0.8-4.6,1.3-7,1.4c-2.9,0.2-5.8,0.2-8.7,0.2
	s-5.9-0.1-8.8-0.1h-1.7c-3.5,0-6.9,0-10.4,0s-6.7,0-10,0c-2,0-3.9-0.1-5.9-0.2c-4-0.4-7.7-1.5-11-3.7c-4-2.6-6.9-6.2-8.9-10.5
	c-1-2.2-1.8-4.5-2.3-6.9c-0.4-2.1-0.7-4.2-0.7-6.4c0-1.6,0.2-1.7-1-1.7h-2.8c-2.5,0-4.9-0.3-7.3-0.8c-3.5-0.8-6.6-2.3-9.4-4.6
	c-2.5-2.1-4.5-4.6-6.1-7.5c-1.1-2-2-4.1-2.6-6.4c-0.5-1.9-0.9-3.8-1.1-5.8c-0.5-6.5-0.1-12.9-0.2-19.4c0-1.9,0-3.8,0-5.7v-0.4
	c0-0.7,0.1-0.8,0.8-0.8c7.5,0,15.1,0,22.6,0h6.4c0.7,0,1.1,0.3,1.3,1c0.1-0.2,0.2-0.4,0.2-0.6c0.2-0.8,0.4-1.5,0.7-2.3
	c1-3.4,2.7-6.6,4.9-9.4c2.3-2.9,5.2-5.1,8.5-6.7c1.8-0.8,3.6-1.3,5.6-1.7c2.2-0.4,4.4-0.5,6.7-0.5h0.7c0.8,0,1.7,0,2.5-0.1
	c0.3,0,0.4-0.1,0.4-0.4v-2.5c0-0.3-0.2-0.5-0.5-0.5c-0.2,0-0.5,0-0.7,0H55c-1,0-1,0-1-1V6.9c0-0.8,0-0.8,0.8-0.8L99.3,6.1
	 M74.1,104.1c0.8,0,1.6,0,2.4,0h0.9c1.7,0,3.4-0.2,5.1-0.5c4.1-0.8,7.3-2.9,9.9-6.2c3.3-4.2,4.8-9.1,4.9-14.4c0.1-3.8,0-7.7,0-11.5
	c0-13.7,0-27.4,0-41c0-1,0.1-1,1.1-1c1.6,0,3.3,0,4.9,0c3,0,6.1,0,9.1,0c1.1,0,2.1,0,3.1,0c0.7,0,0.8-0.1,0.8-0.7V13.7
	c0-0.3,0-0.6-0.1-0.9c0-0.4-0.2-0.6-0.6-0.6c-0.4,0-0.9-0.1-1.3-0.1H88.2c-3.1,0-6.2,0-9.3,0h-6.1c-4,0-8,0-12,0.1
	c-0.6,0-0.7,0.1-0.8,0.7v15.5c0,0.7,0.2,0.9,0.9,0.9c0.9,0,1.9,0,2.8,0l13.9,0c0.2,0,0.4,0,0.6,0c0.4,0,0.6,0.2,0.6,0.6
	c0,0.3,0,0.6,0,0.9c0,15.3,0,30.7,0,46c0,2.2,0,4.4-0.1,6.6c-0.1,2.4-1.4,3.6-3.7,3.7c-0.6,0-1.2,0.1-1.8,0.1
	c-0.4,0-0.6,0.2-0.6,0.6c0,1.8,0,3.5,0,5.3c0,3.3,0,6.7,0,10c0,0.6,0,0.7,0.6,0.7L74.1,104.1 M69.9,44.9h-1.5
	c-1.9,0-3.8,0.2-5.7,0.6c-2.8,0.6-5.3,1.8-7.4,3.7c-3.5,3.1-5.5,7.1-6.6,11.5c-0.6,2.4-0.7,4.8-0.7,7.2c0,8.3,0,16.5,0,24.8
	c0,6.7,0,13.5,0.1,20.2c0,3.2,0.8,6.3,2.1,9.2c1,2.3,2.4,4.4,4.1,6.3c2.6,2.7,5.8,4.3,9.5,4.8c1.8,0.3,3.7,0.4,5.6,0.4
	c4.5,0,9,0,13.5,0c4.7,0,9.5,0,14.2,0c4.2,0,8.3,0,12.5-0.1c2.1,0,4.1-0.5,6-1.2c4.2-1.6,7.2-4.6,9.3-8.4c2.1-3.9,3-8.1,3-12.5
	c0-3.5,0-6.9,0-10.4c0-0.7-0.1-1.3-0.1-2c-0.5-0.1-0.9-0.2-1.3-0.2c-5.4,0-10.8,0-16.2,0c-0.8,0-0.8,0-0.8,0.9c0,3.4,0,6.8,0,10.2
	c0,1.4-0.1,2.8-0.2,4.2c-0.2,1.3-0.9,2.2-2.2,2.5c-0.9,0.2-1.8,0.4-2.7,0.4c-2.9,0-5.7,0-8.6,0H85.2c-4.5,0-9,0-13.5,0
	c-0.9,0-1.9-0.2-2.8-0.4c-1-0.3-1.6-1-1.9-2c-0.4-1.1-0.3-2.2-0.3-3.3c0-12.3,0-24.5,0-36.8c0-3.1,0-6.2,0.1-9.2
	c0-1.7,0.9-2.8,2.5-3.3c0.9-0.2,1.8-0.3,2.7-0.4c0.8-0.1,0.8,0,0.8-0.9V50.1c0-1.5,0-3.1,0-4.6c0-0.4-0.2-0.6-0.6-0.6h0
	C71.4,44.9,70.6,44.9,69.9,44.9 M113.5,79.7h4.2v-0.1h4.7c1.6,0,3.2,0,4.9,0h0c0.5,0,0.6-0.2,0.6-0.6c0-0.7,0.1-1.4,0.1-2.1
	c0-2.9,0-5.9,0-8.8c0-2.5-0.2-5-0.8-7.5c-0.9-3.7-2.4-7-5-9.9c-3.2-3.6-7.4-5.3-12.1-5.7c-1.1-0.1-2.3-0.1-3.4-0.1h-2.6
	c-0.8,0-0.8,0.1-0.9,1.1v14.2c0,0.2,0,0.5,0,0.8c0,0.4,0.2,0.5,0.6,0.5c0.8,0,1.6,0.1,2.4,0.2c1.7,0.3,2.7,1,3,2.8
	c0.2,1,0.2,2.1,0.2,3.1c0,3.7,0,7.4,0,11.1c0,1-0.2,1,1,1C111.5,79.7,112.5,79.7,113.5,79.7 M19.3,65.3h-1.5c0,0.3-0.1,0.6-0.1,0.8
	c0,1.7,0,3.3-0.1,4.9c0,3.4,0,6.8,0,10.2c0,3,0.4,5.9,1.3,8.8c0.8,2.5,1.8,4.9,3.5,7c1.4,1.7,2.9,3.3,4.8,4.5c3,1.8,6.3,2.5,9.7,2.6
	c0.7,0,1.5,0,2.2,0c0.8,0,1.7,0,2.6,0h0c0.7,0,0.7,0,0.7-0.7c0-2.8,0-5.7,0-8.5c0-2.2,0-4.5,0-6.7c0-0.4-0.2-0.7-0.6-0.7
	c-0.7,0-1.4-0.1-2.1-0.2c-1.8-0.2-3-0.9-3.3-2.9c-0.1-1-0.2-2-0.2-3c0-5.2,0-10.3,0-15.4v-0.4c0-0.2-0.1-0.4-0.4-0.4
	c-0.7,0-1.3-0.1-2-0.1h-9.2c-1.5,0-3,0-4.5,0.1H19.3 M99.3,3.9H54.8c-2,0-2.9,1-2.9,2.9v27.5c0,2.2,1,3.2,3.2,3.2h5.6
	c-1.7,0.4-3.2,0.9-4.5,1.5c-3.6,1.7-6.8,4.2-9.3,7.3c-2.4,3-4.1,6.4-5.3,10.1c0,0.1-0.1,0.2-0.1,0.4H35c-7.5,0-15.1,0-22.6,0
	c-1.3,0-2.9,0.5-2.9,2.9V62c0,1.3,0,2.6,0,4c0,2.2,0,4.6,0,6.8c0,4.2-0.1,8.5,0.3,12.8c0.1,1.9,0.5,3.9,1.1,6.2
	c0.6,2.3,1.5,4.5,2.8,6.8c1.7,3.2,4,5.9,6.6,8.1c3,2.5,6.5,4.2,10.3,5c2.6,0.6,5.2,0.8,7.8,0.8h1.6c0,1.9,0.3,4,0.7,6.3
	c0.5,2.6,1.4,5.1,2.5,7.4c2.3,4.9,5.6,8.7,9.7,11.4c3.5,2.3,7.5,3.7,12,4.1c2.2,0.2,4.4,0.2,6.1,0.2c3.3,0,6.7,0,10,0
	c3.8,0,7.2,0,10.4,0H93c1.5,0,2.9,0,4.4,0c1.5,0,3,0,4.4,0c3.5,0,6.2-0.1,8.8-0.2c2.6-0.2,5.2-0.7,7.6-1.5c2.9-1.1,5.6-2.6,8-4.7
	c2.4-2.1,4.4-4.6,5.9-7.3c1.9-3.5,3.2-7.2,3.8-11.1c0.3-2.2,0.5-4.2,0.5-6.2c0-4.1,0-8.3,0-12.4v-5.4c0-1.5-1.1-2.6-2.6-2.7h-29.1
	c0.2-0.8,0.4-1.6,0.5-2.4h28.1c2.1,0,3.1-1,3.1-3.2V68.7c0-1.6-0.1-3.1-0.2-4.4c-0.1-1.2-0.2-2.5-0.4-3.7c-0.3-1.4-0.7-2.9-1.2-4.6
	c-0.9-2.9-2.3-5.7-4.2-8.4c-2.3-3.2-5.2-5.8-8.7-7.7c-1.9-1-3.9-1.8-6-2.2h5.8c2.4,0,3.4-1,3.4-3.4V7.1c0-2.2-1-3.2-3.2-3.2
	L99.3,3.9L99.3,3.9z M62.4,14.3h0.6c3.3,0,6.7,0,10-0.1h15.1c0.1,0,0.2,0,0.2,0h26v12.9c-0.6,0-1.2,0-1.8,0c-2.1,0-4.1,0-6.2,0H103
	c-1.5,0-2.9,0-4.4,0c-2.2,0-3.2,1-3.2,3.2l0,19.8l0,21.2v3.4c0,2.7,0,5.4-0.1,8.1c-0.2,5.1-1.7,9.5-4.5,13.1
	c-2.3,2.9-5.1,4.7-8.6,5.4c-1.7,0.3-3.2,0.5-4.7,0.5h-2.6V89.5c0.1,0,0.2,0,0.3,0c3.5-0.2,5.7-2.3,5.8-5.8c0.1-2.3,0.1-4.7,0.1-6.7
	V31c0-0.2,0-0.4,0-0.5V30c0-1.5-1-2.6-2.5-2.8c-0.3,0-0.6,0-0.8,0h-4.6l-9.2,0c-0.5,0-1,0-1.6,0L62.4,14.3L62.4,14.3z M105.6,47h1.2
	c1,0,2.2,0,3.2,0.1c4.5,0.4,8,2,10.6,5c2.1,2.4,3.6,5.3,4.5,9c0.5,2.1,0.8,4.4,0.8,7v8.8c0,0.2,0,0.4,0,0.6h-8.1
	c-0.2,0-0.4,0-0.5,0.1h-5.5v-3.7c0-2.1,0-4.2,0-6.3c0-1.3-0.1-2.4-0.2-3.4c-0.4-2.5-2-4.1-4.7-4.6c-0.4-0.1-0.8-0.1-1.2-0.2
	L105.6,47L105.6,47z M70,47h0.8v12.4c-0.6,0.1-1.3,0.2-1.9,0.3c-2.6,0.7-4.1,2.7-4.1,5.3c-0.1,3.1-0.1,6.2-0.1,9.3
	c0,12.3,0,24.5,0,36.8v0.3c0,1.1,0,2.4,0.4,3.7c0.6,1.7,1.8,2.9,3.4,3.4c1.2,0.3,2.3,0.5,3.3,0.5c4.3,0,8.5,0,13.5,0h10.7
	c2.6,0,5.6,0,8.6,0c1,0,2.1-0.2,3.2-0.5c2.1-0.6,3.5-2.2,3.8-4.3c0.2-1.4,0.2-2.8,0.3-4.5c0-2.3,0-4.7,0-7v-1.9c4.7,0,9.4,0,14.2,0
	v2.1c0,2.7,0,5.5,0,8.3c0,4.4-0.9,8.1-2.8,11.5c-2,3.7-4.6,6.1-8.2,7.5c-1.8,0.7-3.6,1-5.3,1.1c-4.2,0.1-8.5,0.1-12.5,0.1
	c-4.7,0-9.5,0-14.2,0c-4.5,0-9,0-13.4,0c-2,0-3.7-0.1-5.3-0.4c-3.3-0.5-6.1-1.9-8.3-4.2c-1.5-1.5-2.7-3.4-3.7-5.6
	c-1.2-2.7-1.8-5.5-1.9-8.3c-0.1-5.9-0.1-11.8-0.1-17.6v-2.6c0-8.1,0-16.2,0-24.2v-0.5c0-2.7,0.2-4.8,0.7-6.7c1-4.4,3-7.8,5.9-10.4
	c1.8-1.6,3.9-2.7,6.4-3.2c1.7-0.4,3.3-0.5,5.2-0.6L70,47L70,47z M20,67.4h0.3c0.6,0,1.2,0,1.8,0c0.9,0,1.8,0,2.7,0h9.4v2.8
	c0,3.8,0,7.6,0,11.4c0,1,0.1,2.1,0.2,3.3c0.4,2.7,2.1,4.3,5.2,4.7c0.3,0,0.5,0.1,0.8,0.1c0,0.6,0,1.2,0,1.8c0,1.2,0,2.3,0,3.5
	c0,2.1,0,4.3,0,6.4v0.6h-1.2c-0.8,0-1.5,0-2.1,0c-3.6-0.2-6.3-0.9-8.7-2.3c-1.5-0.9-2.8-2.1-4.2-4c-1.3-1.6-2.2-3.5-3.1-6.3
	c-0.8-2.5-1.2-5.1-1.2-8.2c0-3.5,0-7.1,0-10.2C19.9,69.8,19.9,68.6,20,67.4L20,67.4z M91.9,108.8c3.1-1.8,5.7-4.2,7.8-7.2
	c0.6-0.8,1.1-1.6,1.5-2.4v9.6L91.9,108.8L91.9,108.8z"/>
<path d="M42.7,60.1c0.1-0.2,0.2-0.4,0.2-0.6c0.2-0.8,0.4-1.5,0.7-2.3c1-3.4,2.7-6.6,4.9-9.4c2.3-2.9,5.2-5.1,8.5-6.7
	c1.8-0.8,3.6-1.3,5.6-1.7c2.4-0.4,4.7-0.5,7.1-0.5c0.9,0,1.8,0,2.7,0c0.3,0,0.4-0.1,0.4-0.4v-2.5c0-0.3-0.2-0.5-0.5-0.5
	c-0.2,0-0.5,0-0.7,0H55.1c-1,0-1,0-1-1V6.8c0-0.8,0-0.8,0.8-0.8h66.9c1,0,1,0,1,1v27.1c0,1.2,0,1.3-1.3,1.3h-16.6
	c-1.1,0-1.1,0-1.2,1.2v1.7c0,0.4,0.2,0.6,0.6,0.6c1.3,0,2.7,0,4,0.1c1.8,0,3.7,0.2,5.5,0.5c2.4,0.4,4.7,1.1,6.9,2.3
	c3.2,1.7,5.8,4.1,8,7c1.7,2.4,3.1,5,3.9,7.8c0.5,1.5,0.9,3,1.2,4.4c0.2,1.1,0.3,2.3,0.4,3.5c0.1,1.4,0.2,2.8,0.2,4.3
	c0,5.4,0,10.8,0,16.2c0,1,0,1-1,1h-28.8c-1,0-1.1,0.1-1.3,1.1c-0.7,4.8-2.4,9.3-5.2,13.3c-2.8,3.9-6.4,6.7-10.9,8.4
	c-2.1,0.8-4.3,1.3-6.5,1.4c-2.2,0.1-4.4,0.2-6.7,0.3c-0.2,0-0.4,0-0.6,0c-0.1,0-0.2,0.2-0.3,0.2c0.1,0.1,0.2,0.2,0.3,0.3
	c0.2,0.1,0.4,0,0.6,0c9.5,0,19,0,28.6,0h0.1c0.9,0,0.9-0.1,0.9-0.9V93.8c0-1.1,0-1.1,1.1-1.1h29.2c0.3,0,0.5,0.2,0.5,0.5v0.7
	c0,5.7,0,11.4,0,17.1c0,2-0.2,3.9-0.5,5.9c-0.6,3.7-1.8,7.2-3.6,10.4c-1.4,2.6-3.2,4.8-5.4,6.7c-2.1,1.9-4.6,3.3-7.2,4.3
	c-2.3,0.8-4.6,1.3-7,1.4c-6.4,0.4-12.8,0.1-19.2,0.2c-6.8,0.1-13.6,0-20.4,0c-2,0-3.9-0.1-5.9-0.2c-4-0.4-7.7-1.5-11-3.7
	c-4-2.6-6.9-6.2-8.9-10.5c-1-2.2-1.8-4.5-2.3-6.9c-0.4-2.1-0.7-4.2-0.7-6.4c0-1.9,0.2-1.6-1.7-1.7c-0.7,0-1.4,0-2.1,0
	c-2.5,0-4.9-0.3-7.3-0.8c-3.5-0.8-6.6-2.3-9.4-4.6c-2.5-2.1-4.5-4.6-6.1-7.5c-1.1-2-2-4.1-2.6-6.4c-0.5-1.9-0.9-3.8-1.1-5.8
	c-0.5-6.5-0.1-12.9-0.2-19.4c0-1.9,0-3.8,0-5.7v-0.4c0-0.7,0.1-0.8,0.8-0.8c7.5,0,15.1,0,22.6,0h6.4C42,59.1,42.5,59.4,42.7,60.1
	L42.7,60.1z M128,99c-0.5-0.1-0.9-0.2-1.3-0.2c-5.4,0-10.8,0-16.2,0c-0.8,0-0.8,0-0.8,0.9c0,3.4,0,6.8,0,10.2c0,1.4-0.1,2.8-0.2,4.2
	c-0.2,1.3-0.9,2.2-2.2,2.5c-0.9,0.2-1.8,0.4-2.7,0.4c-4.5,0-8.9,0-13.4,0c-6.4,0-12.9,0-19.3,0c-0.9,0-1.9-0.2-2.8-0.4
	c-1-0.3-1.6-1-1.9-2c-0.4-1.1-0.3-2.2-0.3-3.3c0-12.3,0-24.5,0-36.8c0-3.1,0-6.2,0.1-9.2c0-1.7,0.9-2.8,2.5-3.3
	c0.9-0.2,1.8-0.3,2.7-0.4c0.8-0.1,0.8,0,0.8-0.9V50.1c0-1.5,0-3.1,0-4.6c0-0.5-0.2-0.6-0.6-0.6c-1.3,0-2.5,0-3.8,0
	c-1.9,0-3.8,0.2-5.7,0.6c-2.8,0.6-5.3,1.8-7.4,3.7c-3.5,3.1-5.5,7.1-6.6,11.5c-0.6,2.4-0.7,4.8-0.7,7.2c0,8.3,0,16.5,0,24.8
	c0,6.7,0,13.5,0.1,20.2c0,3.2,0.8,6.3,2.1,9.2c1,2.3,2.4,4.4,4.1,6.3c2.6,2.7,5.8,4.3,9.5,4.8c1.8,0.3,3.7,0.4,5.6,0.4
	c9.2,0,18.4,0,27.7,0c4.2,0,8.3,0,12.5-0.1c2.1,0,4.1-0.5,6-1.2c4.2-1.6,7.2-4.6,9.3-8.4c2.1-3.9,3-8.1,3-12.5c0-3.5,0-6.9,0-10.4
	C128.1,100.3,128,99.6,128,99L128,99z M88.3,12.1c-5.1,0-10.2,0-15.4,0c-4,0-8,0-12,0.1c-0.6,0-0.7,0.1-0.8,0.7v15.5
	c0,0.7,0.2,0.9,0.9,0.9c0.9,0,1.9,0,2.8,0l13.9,0c0.2,0,0.4,0,0.6,0c0.4,0,0.6,0.2,0.6,0.6c0,0.3,0,0.6,0,0.9c0,15.3,0,30.7,0,46
	c0,2.2,0,4.4-0.1,6.6c-0.1,2.4-1.4,3.6-3.7,3.7c-0.6,0-1.2,0.1-1.8,0.1c-0.4,0-0.6,0.2-0.6,0.6c0,1.8,0,3.5,0,5.3c0,3.3,0,6.7,0,10
	c0,0.6,0,0.7,0.6,0.7c1.3,0,2.6,0,3.9,0c1.8,0,3.6-0.2,5.3-0.5c4.1-0.8,7.3-2.9,9.9-6.2c3.3-4.2,4.8-9.1,4.9-14.4
	c0.1-3.8,0-7.7,0-11.5c0-13.7,0-27.4,0-41c0-1,0.1-1,1.1-1c1.6,0,3.3,0,4.9,0c3,0,6.1,0,9.1,0c1.1,0,2.1,0,3.1,0
	c0.7,0,0.8-0.1,0.8-0.7v-15c0-0.3,0-0.6-0.1-0.9c0-0.4-0.2-0.6-0.6-0.6c-0.4,0-0.9-0.1-1.3-0.1H88.3L88.3,12.1z M17.9,65.2
	c0,0.3-0.1,0.6-0.1,0.8c0,1.7,0,3.3-0.1,4.9c0,3.4,0,6.8,0,10.2c0,3,0.4,5.9,1.3,8.8c0.8,2.5,1.8,4.9,3.4,7c1.4,1.7,2.9,3.3,4.8,4.5
	c3,1.8,6.3,2.5,9.7,2.6c1.6,0.1,3.2,0,4.8,0c0.7,0,0.7,0,0.7-0.7c0-2.8,0-5.7,0-8.5c0-2.2,0-4.5,0-6.7c0-0.4-0.2-0.7-0.6-0.7
	c-0.7,0-1.4-0.1-2.1-0.2c-1.8-0.2-3-0.9-3.3-2.9c-0.1-1-0.2-2-0.2-3c0-5.2,0-10.3,0-15.4v-0.4c0-0.2-0.1-0.4-0.4-0.4
	c-0.7,0-1.3-0.1-2-0.1h-9.2c-1.5,0-3,0-4.5,0.1H17.9L17.9,65.2z M117.8,79.7L117.8,79.7l9.6-0.1c0.5,0,0.6-0.2,0.6-0.6
	c0-0.7,0.1-1.4,0.1-2.1c0-2.9,0-5.9,0-8.8c0-2.5-0.2-5-0.8-7.5c-0.9-3.7-2.4-7-5-9.9c-3.2-3.6-7.4-5.3-12.1-5.7
	c-1.9-0.2-3.8-0.1-5.7-0.1c-1.1,0-1.1,0-1.1,1.1v14.2c0,0.2,0,0.5,0,0.8c0,0.4,0.2,0.5,0.6,0.5c0.8,0,1.6,0.1,2.4,0.2
	c1.7,0.3,2.7,1,3,2.8c0.2,1,0.2,2.1,0.2,3.1c0,3.7,0,7.4,0,11.1c0,1-0.2,1,1,1C113,79.7,115.4,79.7,117.8,79.7L117.8,79.7z"/>
<path fill="#FFFFFF" d="M128,99c0,0.7,0.1,1.3,0.1,2c0,3.5,0,6.9,0,10.4c0,4.4-0.9,8.6-3,12.5c-2.1,3.9-5.1,6.9-9.3,8.4
	c-1.9,0.7-3.9,1.2-6,1.2c-4.2,0.1-8.3,0.1-12.5,0.1c-9.2,0-18.4,0-27.7,0c-1.9,0-3.8-0.1-5.6-0.4c-3.7-0.6-6.9-2.1-9.5-4.8
	c-1.8-1.8-3.1-3.9-4.1-6.3c-1.3-2.9-2-6-2.1-9.2c-0.1-6.7-0.1-13.5-0.1-20.2c0-8.3,0-16.5,0-24.8c0-2.4,0.2-4.8,0.7-7.2
	c1.1-4.5,3.1-8.5,6.6-11.5c2.1-1.9,4.6-3.1,7.4-3.7c1.9-0.4,3.7-0.6,5.6-0.6c1.3,0,2.5,0,3.8,0c0.4,0,0.6,0.1,0.6,0.6
	c0,1.5,0,3.1,0,4.6v10.5c0,0.8,0,0.8-0.8,0.9c-0.9,0.1-1.8,0.1-2.7,0.4c-1.7,0.5-2.5,1.6-2.5,3.3c-0.1,3.1-0.1,6.2-0.1,9.2
	c0,12.3,0,24.6,0,36.8c0,1.1,0,2.2,0.3,3.3c0.3,1,0.9,1.7,1.9,2c0.9,0.2,1.8,0.4,2.8,0.4c6.4,0,12.9,0,19.3,0c4.5,0,8.9,0,13.4,0
	c0.9,0,1.8-0.2,2.7-0.4c1.2-0.3,2-1.2,2.2-2.5c0.2-1.4,0.2-2.8,0.2-4.2c0-3.4,0-6.8,0-10.2c0-0.9,0-0.9,0.8-0.9c5.4,0,10.8,0,16.2,0
	C127.1,98.8,127.5,98.9,128,99z M88.3,12.1H72.9c-4,0-8,0-12,0.1c-0.6,0-0.7,0.1-0.8,0.7v15.5c0,0.7,0.2,0.9,0.9,0.9
	c0.9,0,1.9,0,2.8,0l13.9,0c0.2,0,0.4,0,0.6,0c0.4,0,0.6,0.2,0.6,0.6c0,0.3,0,0.6,0,0.9c0,15.3,0,30.7,0,46c0,2.2,0,4.4-0.1,6.6
	c-0.1,2.4-1.4,3.6-3.7,3.7c-0.6,0-1.2,0.1-1.8,0.1c-0.4,0-0.6,0.2-0.6,0.6c0,1.8,0,3.5,0,5.3c0,3.3,0,6.7,0,10c0,0.6,0,0.7,0.6,0.7
	c1.3,0,2.6,0,3.9,0c1.8,0,3.6-0.2,5.3-0.5c4.1-0.8,7.3-2.9,9.9-6.2c3.3-4.2,4.8-9.1,4.9-14.4c0.1-3.8,0-7.7,0-11.5
	c0-13.7,0-27.4,0-41c0-1,0.1-1,1.1-1c1.6,0,3.3,0,4.9,0c3,0,6.1,0,9.1,0c1.1,0,2.1,0,3.1,0c0.7,0,0.8-0.1,0.8-0.7v-15
	c0-0.3,0-0.6-0.1-0.9c0-0.4-0.2-0.6-0.6-0.6c-0.4,0-0.9-0.1-1.3-0.1L88.3,12.1L88.3,12.1z M17.8,66.1c0,1.7,0,3.3-0.1,4.9
	c0,3.4,0,6.8,0,10.2c0,3,0.4,5.9,1.3,8.8c0.8,2.5,1.8,4.9,3.4,7c1.4,1.7,2.9,3.3,4.8,4.5c3,1.8,6.3,2.5,9.7,2.6c1.6,0.1,3.2,0,4.8,0
	c0.7,0,0.7,0,0.7-0.7c0-2.8,0-5.7,0-8.5c0-2.2,0-4.5,0-6.7c0-0.4-0.2-0.7-0.6-0.7c-0.7,0-1.4-0.1-2.1-0.2c-1.8-0.2-3-0.9-3.3-2.9
	c-0.1-1-0.2-2-0.2-3c0-5.2,0-10.3,0-15.4v-0.4c0-0.2-0.1-0.4-0.4-0.4c-0.7,0-1.3-0.1-2-0.1h-9.2c-1.5,0-3,0-4.5,0.1h-2.4
	C17.9,65.6,17.8,65.8,17.8,66.1L17.8,66.1z M117.8,79.6h9.6c0.5,0,0.6-0.2,0.6-0.6c0-0.7,0.1-1.4,0.1-2.1c0-2.9,0-5.9,0-8.8
	c0-2.5-0.2-5-0.8-7.5c-0.9-3.7-2.4-7-5-9.9c-3.2-3.6-7.4-5.3-12.1-5.7c-1.9-0.2-3.8-0.1-5.7-0.1c-1.1,0-1.1,0-1.1,1.1v14.2
	c0,0.2,0,0.5,0,0.8c0,0.4,0.2,0.5,0.6,0.5c0.8,0,1.6,0.1,2.4,0.2c1.7,0.3,2.7,1,3,2.8c0.2,1,0.2,2.1,0.2,3.1c0,3.7,0,7.4,0,11.1
	c0,1-0.2,1,1,1C113,79.7,115.4,79.7,117.8,79.6L117.8,79.6L117.8,79.6z"/>
</svg>
